<?xml version="1.0" encoding="utf-8"?>
<!-- Generator: Adobe Illustrator 18.0.0, SVG Export Plug-In . SVG Version: 6.00 Build 0)  -->
<!DOCTYPE svg PUBLIC "-//W3C//DTD SVG 1.1//EN" "http://www.w3.org/Graphics/SVG/1.1/DTD/svg11.dtd">
<svg version="1.1" xmlns="http://www.w3.org/2000/svg" xmlns:xlink="http://www.w3.org/1999/xlink" x="0px" y="0px"
	 viewBox="0 0 142.5 142.5" enable-background="new 0 0 142.5 142.5" xml:space="preserve">
<g id="facebook" display="none">
	<g display="inline">
		<circle fill="#3D5A98" cx="71.2" cy="71.2" r="71.2"/>
		<path id="f" fill="#FFFFFF" d="M75,108.3V74.5h11.4l1.7-13.2H75v-8.4c0-3.8,1.1-6.4,6.5-6.4l7,0V34.7c-1.2-0.2-5.4-0.5-10.2-0.5
			c-10.1,0-17,6.1-17,17.4v9.7H50v13.2h11.4v33.8H75z"/>
	</g>
</g>
<g id="twitter" display="none">
	<g display="inline">
		<circle fill="#5FA9DD" cx="71.2" cy="71.2" r="71.2"/>
		<path fill="#FFFFFF" d="M103.9,51c-2.4,1.1-5,1.8-7.7,2.1c2.8-1.7,4.9-4.3,5.9-7.4c-2.6,1.5-5.5,2.6-8.5,3.2
			c-2.4-2.6-5.9-4.2-9.8-4.2c-7.4,0-13.4,6-13.4,13.4c0,1,0.1,2.1,0.3,3.1c-11.1-0.6-21-5.9-27.6-14c-1.2,2-1.8,4.3-1.8,6.7
			c0,4.6,2.4,8.7,6,11.1c-2.2-0.1-4.3-0.7-6.1-1.7c0,0.1,0,0.1,0,0.2c0,6.5,4.6,11.9,10.7,13.1c-1.1,0.3-2.3,0.5-3.5,0.5
			c-0.9,0-1.7-0.1-2.5-0.2c1.7,5.3,6.6,9.2,12.5,9.3c-4.6,3.6-10.4,5.7-16.6,5.7c-1.1,0-2.1-0.1-3.2-0.2c5.9,3.8,13,6,20.5,6
			c24.6,0,38.1-20.4,38.1-38.1c0-0.6,0-1.2,0-1.7C99.8,56.1,102.1,53.7,103.9,51z"/>
	</g>
</g>
<g id="google__x2B_" display="none">
	<g display="inline">
		<circle fill="#DF4B37" cx="71.2" cy="71.2" r="71.2"/>
		<path fill="#FFFFFF" d="M78.8,79.2c-6.9-5-8.6-7.9-2-13c3.7-2.9,6.3-6.8,6.3-11.5c0-5.2-2.1-9.8-6.1-12.2h5.6l4.8-4.8
			c0,0-18,0-21.4,0c-13.4,0-19.9,8-19.9,16.8c0,9,6.2,16.1,18.3,16.1c-1.9,3.8-1.1,7.3,1.9,9.7c-20.6,0-25,9-25,16
			c0,9,10.4,14.4,22.8,14.4c17,0,23.8-9,23.8-16.4C87.9,88.3,85.6,84.3,78.8,79.2z M54.1,54.3c-1-7.6,2.9-13.4,8.6-13.2
			c5.8,0.2,10.7,6.4,11.7,14c1,7.6-2.3,12.5-8.1,12.3C60.6,67.2,55.1,61.9,54.1,54.3z M64.1,106.7c-8.6,0-14.8-5.4-14.8-12
			c0-6.4,7.3-11.9,15.9-11.8c9.5,0,15.2,5.9,15.2,12.2C80.4,101.6,75.1,106.7,64.1,106.7z M102.9,67.9v-8.1h-5.1v8.1h-8.1V73h8.1
			v8.4h5.1V73h8.4v-5.1H102.9z"/>
	</g>
</g>
<g id="linkedin" display="none">
	<g display="inline">
		<circle fill="#007BB5" cx="71.2" cy="71.2" r="71.2"/>
		<g>
			<rect x="41.6" y="61" fill="#FFFFFF" width="12.7" height="40.8"/>
			<path fill="#FFFFFF" d="M48,40.7c4.1,0,7.4,3.3,7.4,7.4c0,4.1-3.3,7.4-7.4,7.4c-4.1,0-7.4-3.3-7.4-7.4C40.6,44,43.9,40.7,48,40.7
				"/>
			<path fill="#FFFFFF" d="M62.3,61h12.2v5.6h0.2c1.7-3.2,5.8-6.6,12-6.6c12.8,0,15.2,8.5,15.2,19.4v22.4H89.2V82
				c0-4.7-0.1-10.8-6.6-10.8c-6.6,0-7.6,5.2-7.6,10.5v20.2H62.3V61z"/>
		</g>
	</g>
</g>
<g id="pinterest" display="none">
	<g display="inline">
		<circle fill="#CA2027" cx="71.2" cy="71.2" r="71.2"/>
		<path fill="#FFFFFF" d="M51.2,117.9c-0.2-0.1-0.4-0.3-0.4-0.6c-0.1-3.5,0-7.6,0.9-11.4c1-4.2,6.6-28,6.6-28s-1.6-3.3-1.6-8.1
			c0-7.6,4.4-13.3,9.9-13.3c4.7,0,6.9,3.5,6.9,7.7c0,4.7-3,11.7-4.5,18.2c-1.3,5.4,2.7,9.9,8.1,9.9c9.7,0,16.3-12.5,16.3-27.3
			c0-11.2-7.6-19.7-21.3-19.7c-15.6,0-25.3,11.6-25.3,24.6c0,4.5,1.3,7.6,3.4,10.1c0.9,1.1,1.1,1.6,0.7,2.9c-0.2,0.9-0.8,3.2-1,4.1
			c-0.3,1.3-1.4,1.8-2.6,1.3C40,85.4,36.7,77.6,36.7,68.8c0-14.6,12.3-32,36.7-32c19.6,0,32.5,14.2,32.5,29.4
			c0,20.1-11.2,35.2-27.7,35.2c-5.5,0-10.7-3-12.5-6.4c0,0-3,11.8-3.6,14.1c-1,3.7-3,7.5-4.8,10.5c-0.2,0.3-0.6,0.4-0.9,0.3
			L51.2,117.9z"/>
	</g>
</g>
<g id="email">
	<g>
		<circle fill="#5F5F5F" cx="71.2" cy="71.2" r="71.2"/>
		<path fill="#FFFFFF" d="M102,44.6H40.5c-3.7,0-6.7,3-6.7,6.7v39.9c0,3.7,3,6.7,6.7,6.7H102c3.7,0,6.7-3,6.7-6.7V51.3
			C108.6,47.6,105.7,44.6,102,44.6z M95.3,51.4L71.6,75c-0.2,0.2-0.6,0.2-0.8,0L47.2,51.4H95.3z M40.6,91.1V54.4L66,79.8
			c1.4,1.4,3.3,2.1,5.2,2.1s3.8-0.7,5.2-2.1l25.4-25.4v36.6H40.6z"/>
	</g>
</g>
</svg>
