<?xml version="1.0" encoding="utf-8"?>
<!-- Generator: Adobe Illustrator 18.0.0, SVG Export Plug-In . SVG Version: 6.00 Build 0)  -->
<!DOCTYPE svg PUBLIC "-//W3C//DTD SVG 1.1//EN" "http://www.w3.org/Graphics/SVG/1.1/DTD/svg11.dtd">
<svg version="1.1" xmlns="http://www.w3.org/2000/svg" xmlns:xlink="http://www.w3.org/1999/xlink" x="0px" y="0px"
	 viewBox="0 0 142.5 142.5" enable-background="new 0 0 142.5 142.5" xml:space="preserve">
<g id="email">
	<g>
		<circle fill="#5F5F5F" cx="71.2" cy="71.2" r="71.2"/>
		<path fill="#FFFFFF" d="M102,44.6H40.5c-3.7,0-6.7,3-6.7,6.7v39.9c0,3.7,3,6.7,6.7,6.7H102c3.7,0,6.7-3,6.7-6.7V51.3
			C108.6,47.6,105.7,44.6,102,44.6z M95.3,51.4L71.6,75c-0.2,0.2-0.6,0.2-0.8,0L47.2,51.4H95.3z M40.6,91.1V54.4L66,79.8
			c1.4,1.4,3.3,2.1,5.2,2.1s3.8-0.7,5.2-2.1l25.4-25.4v36.6H40.6z"/>
	</g>
</g>
</svg>
