<?xml version="1.0" encoding="utf-8"?>
<!-- Generator: Adobe Illustrator 18.0.0, SVG Export Plug-In . SVG Version: 6.00 Build 0)  -->
<!DOCTYPE svg PUBLIC "-//W3C//DTD SVG 1.1//EN" "http://www.w3.org/Graphics/SVG/1.1/DTD/svg11.dtd">
<svg version="1.1" xmlns="http://www.w3.org/2000/svg" xmlns:xlink="http://www.w3.org/1999/xlink" x="0px" y="0px"
	 viewBox="0 0 142.5 142.5" enable-background="new 0 0 142.5 142.5" xml:space="preserve">
<g id="google__x2B_">
	<g>
		<circle fill="#DF4B37" cx="71.2" cy="71.2" r="71.2"/>
		<path fill="#FFFFFF" d="M78.8,79.2c-6.9-5-8.6-7.9-2-13c3.7-2.9,6.3-6.8,6.3-11.5c0-5.2-2.1-9.8-6.1-12.2h5.6l4.8-4.8
			c0,0-18,0-21.4,0c-13.4,0-19.9,8-19.9,16.8c0,9,6.2,16.1,18.3,16.1c-1.9,3.8-1.1,7.3,1.9,9.7c-20.6,0-25,9-25,16
			c0,9,10.4,14.4,22.8,14.4c17,0,23.8-9,23.8-16.4C87.9,88.3,85.6,84.3,78.8,79.2z M54.1,54.3c-1-7.6,2.9-13.4,8.6-13.2
			c5.8,0.2,10.7,6.4,11.7,14c1,7.6-2.3,12.5-8.1,12.3C60.6,67.2,55.1,61.9,54.1,54.3z M64.1,106.7c-8.6,0-14.8-5.4-14.8-12
			c0-6.4,7.3-11.9,15.9-11.8c9.5,0,15.2,5.9,15.2,12.2C80.4,101.6,75.1,106.7,64.1,106.7z M102.9,67.9v-8.1h-5.1v8.1h-8.1V73h8.1
			v8.4h5.1V73h8.4v-5.1H102.9z"/>
	</g>
</g>
</svg>
