<?xml version="1.0" encoding="utf-8"?>
<!-- Generator: Adobe Illustrator 18.0.0, SVG Export Plug-In . SVG Version: 6.00 Build 0)  -->
<!DOCTYPE svg PUBLIC "-//W3C//DTD SVG 1.1//EN" "http://www.w3.org/Graphics/SVG/1.1/DTD/svg11.dtd">
<svg version="1.1" xmlns="http://www.w3.org/2000/svg" xmlns:xlink="http://www.w3.org/1999/xlink" x="0px" y="0px"
	 viewBox="0 0 142.5 142.5" enable-background="new 0 0 142.5 142.5" xml:space="preserve">
<g id="linkedin">
	<g>
		<circle fill="#007BB5" cx="71.2" cy="71.2" r="71.2"/>
		<g>
			<rect x="41.6" y="61" fill="#FFFFFF" width="12.7" height="40.8"/>
			<path fill="#FFFFFF" d="M48,40.7c4.1,0,7.4,3.3,7.4,7.4c0,4.1-3.3,7.4-7.4,7.4c-4.1,0-7.4-3.3-7.4-7.4C40.6,44,43.9,40.7,48,40.7
				"/>
			<path fill="#FFFFFF" d="M62.3,61h12.2v5.6h0.2c1.7-3.2,5.8-6.6,12-6.6c12.8,0,15.2,8.5,15.2,19.4v22.4H89.2V82
				c0-4.7-0.1-10.8-6.6-10.8c-6.6,0-7.6,5.2-7.6,10.5v20.2H62.3V61z"/>
		</g>
	</g>
</g>
</svg>
