<?xml version="1.0" encoding="utf-8"?>
<!-- Generator: Adobe Illustrator 18.0.0, SVG Export Plug-In . SVG Version: 6.00 Build 0)  -->
<!DOCTYPE svg PUBLIC "-//W3C//DTD SVG 1.1//EN" "http://www.w3.org/Graphics/SVG/1.1/DTD/svg11.dtd">
<svg version="1.1" xmlns="http://www.w3.org/2000/svg" xmlns:xlink="http://www.w3.org/1999/xlink" x="0px" y="0px"
	 viewBox="0 0 142.5 142.5" enable-background="new 0 0 142.5 142.5" xml:space="preserve">
<g id="pinterest">
	<g>
		<circle fill="#CA2027" cx="71.2" cy="71.2" r="71.2"/>
		<path fill="#FFFFFF" d="M51.2,117.9c-0.2-0.1-0.4-0.3-0.4-0.6c-0.1-3.5,0-7.6,0.9-11.4c1-4.2,6.6-28,6.6-28s-1.6-3.3-1.6-8.1
			c0-7.6,4.4-13.3,9.9-13.3c4.7,0,6.9,3.5,6.9,7.7c0,4.7-3,11.7-4.5,18.2c-1.3,5.4,2.7,9.9,8.1,9.9c9.7,0,16.3-12.5,16.3-27.3
			c0-11.2-7.6-19.7-21.3-19.7c-15.6,0-25.3,11.6-25.3,24.6c0,4.5,1.3,7.6,3.4,10.1c0.9,1.1,1.1,1.6,0.7,2.9c-0.2,0.9-0.8,3.2-1,4.1
			c-0.3,1.3-1.4,1.8-2.6,1.3C40,85.4,36.7,77.6,36.7,68.8c0-14.6,12.3-32,36.7-32c19.6,0,32.5,14.2,32.5,29.4
			c0,20.1-11.2,35.2-27.7,35.2c-5.5,0-10.7-3-12.5-6.4c0,0-3,11.8-3.6,14.1c-1,3.7-3,7.5-4.8,10.5c-0.2,0.3-0.6,0.4-0.9,0.3
			L51.2,117.9z"/>
	</g>
</g>
</svg>
