<?xml version="1.0" encoding="utf-8"?>
<!-- Generator: Adobe Illustrator 18.0.0, SVG Export Plug-In . SVG Version: 6.00 Build 0)  -->
<!DOCTYPE svg PUBLIC "-//W3C//DTD SVG 1.1//EN" "http://www.w3.org/Graphics/SVG/1.1/DTD/svg11.dtd">
<svg version="1.1" xmlns="http://www.w3.org/2000/svg" xmlns:xlink="http://www.w3.org/1999/xlink" x="0px" y="0px"
	 viewBox="0 0 142.5 142.5" enable-background="new 0 0 142.5 142.5" xml:space="preserve">
<g id="twitter">
	<g>
		<circle fill="#5FA9DD" cx="71.2" cy="71.2" r="71.2"/>
		<path fill="#FFFFFF" d="M103.9,51c-2.4,1.1-5,1.8-7.7,2.1c2.8-1.7,4.9-4.3,5.9-7.4c-2.6,1.5-5.5,2.6-8.5,3.2
			c-2.4-2.6-5.9-4.2-9.8-4.2c-7.4,0-13.4,6-13.4,13.4c0,1,0.1,2.1,0.3,3.1c-11.1-0.6-21-5.9-27.6-14c-1.2,2-1.8,4.3-1.8,6.7
			c0,4.6,2.4,8.7,6,11.1c-2.2-0.1-4.3-0.7-6.1-1.7c0,0.1,0,0.1,0,0.2c0,6.5,4.6,11.9,10.7,13.1c-1.1,0.3-2.3,0.5-3.5,0.5
			c-0.9,0-1.7-0.1-2.5-0.2c1.7,5.3,6.6,9.2,12.5,9.3c-4.6,3.6-10.4,5.7-16.6,5.7c-1.1,0-2.1-0.1-3.2-0.2c5.9,3.8,13,6,20.5,6
			c24.6,0,38.1-20.4,38.1-38.1c0-0.6,0-1.2,0-1.7C99.8,56.1,102.1,53.7,103.9,51z"/>
	</g>
</g>
</svg>
